<svg width="93" height="46" viewBox="0 0 93 46" fill="none" xmlns="http://www.w3.org/2000/svg">
<path d="M92.1089 45.8925C87.8897 45.8925 83.655 46.1717 79.4513 45.8304C73.3086 45.3341 67.5693 43.24 62.1867 40.2152C60.527 39.2845 58.8207 38.4158 57.223 37.392C49.1724 32.2266 41.0132 32.5213 32.8695 37.0508C28.8054 39.3155 24.8655 41.8129 20.6152 44.0466C21.0341 43.6898 21.4063 43.271 21.8562 42.9763C26.6958 39.9515 31.3804 36.6475 36.4372 34.0415C42.5333 30.8926 48.9397 31.0477 55.1754 34.057C58.4329 35.6237 61.6748 37.2369 64.9323 38.8191C72.8588 42.6505 81.2196 44.6515 89.9993 45.0238C90.5732 45.0548 91.1472 45.0704 91.7056 45.1324C91.8452 45.1479 91.9693 45.2875 92.0934 45.3651C92.0934 45.5202 92.0934 45.7063 92.1089 45.8925Z" fill="white"/>
<path d="M0 0.62923C4.52943 0.396554 8.34532 2.07182 10.9668 5.48441C13.5418 8.85046 19.4983 19.7087 28.9915 33.964C18.8313 24.3777 15.0619 15.9083 13.4797 13.3023C9.55524 6.88046 6.94926 2.3045 0 0.62923Z" fill="white"/>
<path d="M75.9769 40.3391C79.2499 36.0113 76.8456 32.7073 74.5653 29.2482C70.8735 31.9317 67.0577 34.3516 62.916 34.6463C67.0887 31.9317 71.6181 28.969 76.1786 25.9907C76.3647 29.605 79.5291 32.7538 79.0482 37.0506C78.7845 39.3153 77.9469 40.215 75.9769 40.3391Z" fill="white"/>
</svg>
